<svg xmlns="http://www.w3.org/2000/svg" width="16" height="16" viewBox="0 0 16 16"><defs><clipPath id="a" clipPathUnits="userSpaceOnUse"><rect width="16" height="8.002" ry=".488" style="fill:#fff;fill-opacity:1;stroke:none;stroke-width:.408253;stroke-linejoin:round;stroke-miterlimit:5.5;stroke-dasharray:none;stroke-opacity:1"/></clipPath></defs><path fill="#e0e0e0" d="M7.998 15.36c.425 0 .841-.039 1.246-.108l.198-2.093q.628-.175 1.185-.489l1.618 1.337a7.4 7.4 0 0 0 1.765-1.762l-1.34-1.618q.316-.556.493-1.185l2.09-.198q.105-.608.107-1.246-.002-.637-.108-1.245l-2.09-.198a5.3 5.3 0 0 0-.492-1.186l1.337-1.617a7.4 7.4 0 0 0-1.759-1.762l-1.62 1.34a5.3 5.3 0 0 0-1.186-.493L9.244.744A7.4 7.4 0 0 0 7.998.64q-.635 0-1.242.104l-.198 2.093a5.3 5.3 0 0 0-1.185.493L3.752 1.99a7.4 7.4 0 0 0-1.759 1.762L3.33 5.369q-.316.557-.493 1.186l-2.09.198Q.643 7.36.64 7.998q.002.638.108 1.246l2.09.198c.116.418.283.815.492 1.185l-1.34 1.618a7.4 7.4 0 0 0 1.765 1.762l1.618-1.337q.556.315 1.185.49l.198 2.092q.606.107 1.243.108zm0-4.559a2.8 2.8 0 0 1-2.8-2.803 2.8 2.8 0 1 1 5.603 0 2.804 2.804 0 0 1-2.803 2.803" clip-path="url(#a)" style="fill-opacity:1;stroke-width:.308;stroke-dasharray:none"/><rect width="13.083" height="4.586" x="1.512" y="10.009" fill="none" stroke="#e0e0e0" ry="0" style="fill:#fff;fill-opacity:0;stroke-width:1.52938;stroke-linejoin:miter;stroke-miterlimit:5.5;stroke-dasharray:none;stroke-opacity:1"/></svg>