<?xml version="1.0" encoding="UTF-8" standalone="no"?>
<!-- Generator: Adobe Illustrator 28.0.0, SVG Export Plug-In . SVG Version: 6.00 Build 0)  -->

<svg
   version="1.1"
   id="Layer_1"
   x="0px"
   y="0px"
   viewBox="0 0 2339.61 506.14"
   enable-background="new 0 0 2339.61 506.14"
   xml:space="preserve"
   sodipodi:docname="logo w text.svg"
   inkscape:version="1.4.3 (0d15f75042, 2025-12-25)"
   xmlns:inkscape="http://www.inkscape.org/namespaces/inkscape"
   xmlns:sodipodi="http://sodipodi.sourceforge.net/DTD/sodipodi-0.dtd"
   xmlns:xlink="http://www.w3.org/1999/xlink"
   xmlns="http://www.w3.org/2000/svg"
   xmlns:svg="http://www.w3.org/2000/svg"><defs
   id="defs20" /><sodipodi:namedview
   id="namedview20"
   pagecolor="#ffffff"
   bordercolor="#000000"
   borderopacity="0.25"
   inkscape:showpageshadow="2"
   inkscape:pageopacity="0.0"
   inkscape:pagecheckerboard="0"
   inkscape:deskcolor="#d1d1d1"
   inkscape:zoom="0.51611164"
   inkscape:cx="841.87213"
   inkscape:cy="42.626437"
   inkscape:window-width="2560"
   inkscape:window-height="1408"
   inkscape:window-x="1080"
   inkscape:window-y="0"
   inkscape:window-maximized="1"
   inkscape:current-layer="g20" />
<g
   id="g20">
	<g
   id="g6">
		<circle
   fill="#78FF78"
   cx="344.68"
   cy="253.07"
   r="206.52"
   id="circle1" />
		<g
   id="g5">
			<g
   id="g1">
				<defs
   id="defs1">
					<circle
   id="SVGID_00000129918314248337653790000003111895058710622354_"
   cx="344.68"
   cy="253.07"
   r="206.52" />
				</defs>
				<clipPath
   id="SVGID_00000066500582259642475090000006925331294862711206_">
					<use
   xlink:href="#SVGID_00000129918314248337653790000003111895058710622354_"
   overflow="visible"
   id="use1" />
				</clipPath>
				
					<path
   clip-path="url(#SVGID_00000066500582259642475090000006925331294862711206_)"
   fill="#FF92F7"
   stroke="#FFFFFF"
   stroke-width="8"
   stroke-miterlimit="10"
   d="      M596.54,516.1L596.54,516.1c-12.05,6.96-27.46,2.83-34.42-9.22L283.59,24.45c-6.96-12.05-2.83-27.46,9.22-34.42l0,0      c12.05-6.96,27.46-2.83,34.42,9.22l278.53,482.43C612.72,493.73,608.59,509.14,596.54,516.1z"
   id="path1" />
			</g>
			<g
   id="g2">
				<defs
   id="defs2">
					<circle
   id="SVGID_00000154412954282803278430000008192212443938291897_"
   cx="344.68"
   cy="253.07"
   r="206.52" />
				</defs>
				<clipPath
   id="SVGID_00000030467787225753332780000004953834986143325090_">
					<use
   xlink:href="#SVGID_00000154412954282803278430000008192212443938291897_"
   overflow="visible"
   id="use2" />
				</clipPath>
				
					<path
   clip-path="url(#SVGID_00000030467787225753332780000004953834986143325090_)"
   fill="#FF92F7"
   stroke="#FFFFFF"
   stroke-width="8"
   stroke-miterlimit="10"
   d="      M396.54,516.1L396.54,516.1c-12.05,6.96-27.46,2.83-34.42-9.22L83.59,24.45C76.63,12.4,80.76-3.01,92.81-9.97l0,0      c12.05-6.96,27.46-2.83,34.42,9.22l278.53,482.43C412.72,493.73,408.59,509.14,396.54,516.1z"
   id="path2" />
			</g>
			<g
   id="g3">
				<defs
   id="defs3">
					<circle
   id="SVGID_00000073696087477671639480000000877105764513092496_"
   cx="344.68"
   cy="253.07"
   r="206.52" />
				</defs>
				<clipPath
   id="SVGID_00000021808283860755337920000005171946324363195265_">
					<use
   xlink:href="#SVGID_00000073696087477671639480000000877105764513092496_"
   overflow="visible"
   id="use3" />
				</clipPath>
				
					<path
   clip-path="url(#SVGID_00000021808283860755337920000005171946324363195265_)"
   fill="#FF92F7"
   stroke="#FFFFFF"
   stroke-width="8"
   stroke-miterlimit="10"
   d="      M496.54,516.1L496.54,516.1c-12.05,6.96-27.46,2.83-34.42-9.22L183.59,24.45c-6.96-12.05-2.83-27.46,9.22-34.42l0,0      c12.05-6.96,27.46-2.83,34.42,9.22l278.53,482.43C512.72,493.73,508.59,509.14,496.54,516.1z"
   id="path3" />
			</g>
			<g
   id="g4">
				
					<circle
   id="SVGID_1_"
   fill="none"
   stroke="#FFFFFF"
   stroke-width="8"
   stroke-miterlimit="10"
   cx="344.68"
   cy="253.07"
   r="206.52" />
			</g>
		</g>
	</g>
	<g
   id="g19"
   style="stroke:none;stroke-opacity:1;fill:#ffffff;fill-opacity:1">
		<path
   d="M603.97,293.01c14.18,12.6,29.93,18.9,49.73,18.9c20.48,0,34.88-9.22,34.88-21.38c0-12.38-13.28-18.68-40.95-26.55    c-26.33-7.43-53.33-17.78-53.33-46.8c0-28.58,24.75-45.23,58.05-45.23c22.05,0,44.78,9.9,58.73,25.88l-18.9,18.68    c-10.58-11.7-25.65-18-41.63-18c-18.68,0-29.48,6.98-29.48,18.45c0,10.13,11.93,15.08,38.03,22.5    c29.93,8.55,56.03,20.7,56.03,50.4c0,29.7-28.58,48.83-62.33,48.83c-26.78,0-48.83-9.68-66.83-26.33L603.97,293.01z"
   id="path6"
   style="stroke:none;stroke-opacity:1;fill:#ffffff;fill-opacity:1" />
		<path
   d="M735.14,223.71h26.55v12.15c8.33-8.78,20.48-14.4,33.75-14.4c17.1,0,30.6,7.88,37.8,21.15    c10.13-12.83,22.05-21.15,40.05-21.15c26.1,0,44.1,18.45,44.1,47.03v67.73h-26.55v-62.1c0-18.9-9.9-27.68-24.08-27.68    c-15.3,0-27.23,11.25-27.23,28.58v61.2h-26.55v-62.1c0-18.9-9.9-27.68-24.08-27.68c-15.3,0-27.23,11.25-27.23,29.03v60.75h-26.55    V223.71z"
   id="path7"
   style="stroke:none;stroke-opacity:1;fill:#ffffff;fill-opacity:1" />
		<path
   d="M992.54,221.46c14.18,0,27.23,7.42,34.65,16.2v-13.95h26.55v112.5h-26.55v-14.4c-7.43,9.23-20.48,16.65-34.65,16.65    c-32.18,0-55.8-26.33-55.8-58.5S960.36,221.46,992.54,221.46z M963.29,279.96c0,17.55,14.4,31.95,31.95,31.95    c17.55,0,31.95-14.4,31.95-31.95c0-17.55-14.4-31.95-31.95-31.95C977.69,248.01,963.29,262.41,963.29,279.96z"
   id="path8"
   style="stroke:none;stroke-opacity:1;fill:#ffffff;fill-opacity:1" />
		<path
   d="M1106.39,336.21h-26.55V167.45h26.55V336.21z"
   id="path9"
   style="stroke:none;stroke-opacity:1;fill:#ffffff;fill-opacity:1" />
		<path
   d="M1159.03,336.21h-26.55V167.45h26.55V336.21z"
   id="path10"
   style="stroke:none;stroke-opacity:1;fill:#ffffff;fill-opacity:1" />
		<path
   d="M1262.53,171.95c24.08,0,45.68,10.12,60.98,26.55l-18.68,18.9c-10.58-11.7-25.65-18.9-42.3-18.9    c-31.28,0-56.7,25.43-56.7,56.7s25.42,56.7,56.7,56.7c16.65,0,31.73-7.2,42.3-18.9l18.68,18.9c-15.3,16.2-36.9,26.55-60.98,26.55    c-45.9,0-83.25-37.35-83.25-83.25S1216.63,171.95,1262.53,171.95z"
   id="path11"
   style="stroke:none;stroke-opacity:1;fill:#ffffff;fill-opacity:1" />
		<path
   d="M1450.19,279.96c0,32.18-26.1,58.5-58.5,58.5c-32.18,0-58.5-26.33-58.5-58.5c0-32.4,26.33-58.5,58.5-58.5    C1424.08,221.46,1450.19,247.56,1450.19,279.96z M1391.68,311.91c17.55,0,31.95-14.4,31.95-31.95c0-17.55-14.4-31.95-31.95-31.95    c-17.55,0-31.95,14.4-31.95,31.95C1359.73,297.51,1374.13,311.91,1391.68,311.91z"
   id="path12"
   style="stroke:none;stroke-opacity:1;fill:#ffffff;fill-opacity:1" />
		<path
   d="M1469.53,336.21v-112.5h26.55v12.15c8.33-8.78,20.47-14.4,33.75-14.4c26.1,0,44.1,18.45,44.1,47.03v67.73h-26.55v-62.1    c0-18.9-9.9-27.68-24.08-27.68c-15.3,0-27.23,11.25-27.23,29.03v60.75H1469.53z"
   id="path13"
   style="stroke:none;stroke-opacity:1;fill:#ffffff;fill-opacity:1" />
		<path
   d="M1590.58,250.26v-26.55h18.9v-6.08c0-32.4,17.33-45.68,45-45.68h9.23v25.65h-6.98c-13.28,0-20.7,4.73-20.7,21.83v4.28    h27.68v26.55h-27.68v85.95h-26.55v-85.95H1590.58z"
   id="path14"
   style="stroke:none;stroke-opacity:1;fill:#ffffff;fill-opacity:1" />
		<path
   d="M1704.66,223.71v62.1c0,18.68,9.9,27.68,24.08,27.68c15.3,0,27.23-11.48,27.23-29.03v-60.75h26.55v112.5h-26.55v-12.15    c-8.33,8.78-20.48,14.4-33.75,14.4c-26.1,0-44.1-18.45-44.1-47.03v-67.73H1704.66z"
   id="path15"
   style="stroke:none;stroke-opacity:1;fill:#ffffff;fill-opacity:1" />
		<path
   d="M1816.25,301.11c8.78,7.65,21.38,13.28,33.98,13.28c11.25,0,20.03-4.73,20.03-10.8c0-9.45-14.18-12.38-22.5-14.62    c-18.45-5.17-43.43-10.58-43.43-34.65c0-19.12,18.68-32.85,44.1-32.85c17.55,0,33.75,6.53,44.78,16.43l-14.62,18    c-8.1-6.97-19.35-10.35-30.15-10.35c-11.7,0-17.33,4.05-17.33,9c0,6.08,11.25,8.55,23.4,11.47c22.28,5.18,42.3,13.05,42.3,37.35    c0,20.25-20.03,35.1-47.25,35.1c-18.68,0-35.55-6.75-49.05-19.12L1816.25,301.11z"
   id="path16"
   style="stroke:none;stroke-opacity:1;fill:#ffffff;fill-opacity:1" />
		<path
   d="M1928.08,171.95c8.77,0,15.75,7.2,15.75,15.75c0,8.77-6.98,15.98-15.75,15.98c-8.78,0-15.75-7.2-15.75-15.98    C1912.32,179.15,1919.3,171.95,1928.08,171.95z M1914.8,336.21v-112.5h26.55v112.5H1914.8z"
   id="path17"
   style="stroke:none;stroke-opacity:1;fill:#ffffff;fill-opacity:1" />
		<path
   d="M2077.7,279.96c0,32.18-26.1,58.5-58.5,58.5c-32.18,0-58.5-26.33-58.5-58.5c0-32.4,26.33-58.5,58.5-58.5    C2051.6,221.46,2077.7,247.56,2077.7,279.96z M2019.2,311.91c17.55,0,31.95-14.4,31.95-31.95c0-17.55-14.4-31.95-31.95-31.95    c-17.55,0-31.95,14.4-31.95,31.95C1987.25,297.51,2001.65,311.91,2019.2,311.91z"
   id="path18"
   style="stroke:none;stroke-opacity:1;fill:#ffffff;fill-opacity:1" />
		<path
   d="M2097.05,336.21v-112.5h26.55v12.15c8.33-8.78,20.48-14.4,33.75-14.4c26.1,0,44.1,18.45,44.1,47.03v67.73h-26.55v-62.1    c0-18.9-9.9-27.68-24.08-27.68c-15.3,0-27.23,11.25-27.23,29.03v60.75H2097.05z"
   id="path19"
   style="stroke:none;stroke-opacity:1;fill:#ffffff;fill-opacity:1" />
	</g>
</g>
</svg>
