<?xml version="1.0" encoding="UTF-8" standalone="no"?>
<!-- Generator: Adobe Illustrator 28.0.0, SVG Export Plug-In . SVG Version: 6.00 Build 0)  -->

<svg
   version="1.1"
   id="Layer_1"
   x="0px"
   y="0px"
   viewBox="0 0 2339.61 506.14"
   enable-background="new 0 0 2339.61 506.14"
   xml:space="preserve"
   sodipodi:docname="logo w text.svg"
   inkscape:version="1.4.3 (0d15f75042, 2025-12-25)"
   xmlns:inkscape="http://www.inkscape.org/namespaces/inkscape"
   xmlns:sodipodi="http://sodipodi.sourceforge.net/DTD/sodipodi-0.dtd"
   xmlns:xlink="http://www.w3.org/1999/xlink"
   xmlns="http://www.w3.org/2000/svg"
   xmlns:svg="http://www.w3.org/2000/svg"><defs
   id="defs20"><rect
   x="625.83359"
   y="110.44122"
   width="1883.3135"
   height="275.13427"
   id="rect1" />
	
	
<rect
   x="625.83359"
   y="110.44122"
   width="1883.3135"
   height="275.13427"
   id="rect7" /><rect
   x="625.83359"
   y="110.44122"
   width="1883.3135"
   height="275.13427"
   id="rect8" /></defs><sodipodi:namedview
   id="namedview20"
   pagecolor="#ffffff"
   bordercolor="#000000"
   borderopacity="0.25"
   inkscape:showpageshadow="2"
   inkscape:pageopacity="0.0"
   inkscape:pagecheckerboard="true"
   inkscape:deskcolor="#d1d1d1"
   inkscape:zoom="0.51611164"
   inkscape:cx="1179.9773"
   inkscape:cy="489.23524"
   inkscape:window-width="2560"
   inkscape:window-height="1408"
   inkscape:window-x="1080"
   inkscape:window-y="0"
   inkscape:window-maximized="1"
   inkscape:current-layer="g8" />
<g
   id="g7"
   transform="translate(6.9486387)"><g
     id="g8"><g
       id="g6"
       transform="translate(-32)">
		<circle
   fill="#78ff78"
   cx="344.67999"
   cy="253.07001"
   r="206.52"
   id="circle1" />
		<g
   id="g5">
			<g
   id="g1">
				<defs
   id="defs1">
					<circle
   id="SVGID_00000129918314248337653790000003111895058710622354_"
   cx="344.67999"
   cy="253.07001"
   r="206.52" />
				</defs>
				<clipPath
   id="SVGID_00000066500582259642475090000006925331294862711206_">
					<use
   xlink:href="#SVGID_00000129918314248337653790000003111895058710622354_"
   overflow="visible"
   id="use1" />
				</clipPath>
				
					<path
   clip-path="url(#SVGID_00000066500582259642475090000006925331294862711206_)"
   fill="#ff92f7"
   stroke="#ffffff"
   stroke-width="8"
   stroke-miterlimit="10"
   d="m 596.54,516.1 v 0 c -12.05,6.96 -27.46,2.83 -34.42,-9.22 L 283.59,24.45 c -6.96,-12.05 -2.83,-27.46 9.22,-34.42 v 0 c 12.05,-6.96 27.46,-2.83 34.42,9.22 l 278.53,482.43 c 6.96,12.05 2.83,27.46 -9.22,34.42 z"
   id="path1" />
			</g>
			<g
   id="g2">
				<defs
   id="defs2">
					<circle
   id="SVGID_00000154412954282803278430000008192212443938291897_"
   cx="344.67999"
   cy="253.07001"
   r="206.52" />
				</defs>
				<clipPath
   id="SVGID_00000030467787225753332780000004953834986143325090_">
					<use
   xlink:href="#SVGID_00000154412954282803278430000008192212443938291897_"
   overflow="visible"
   id="use2" />
				</clipPath>
				
					<path
   clip-path="url(#SVGID_00000030467787225753332780000004953834986143325090_)"
   fill="#ff92f7"
   stroke="#ffffff"
   stroke-width="8"
   stroke-miterlimit="10"
   d="m 396.54,516.1 v 0 c -12.05,6.96 -27.46,2.83 -34.42,-9.22 L 83.59,24.45 C 76.63,12.4 80.76,-3.01 92.81,-9.97 v 0 c 12.05,-6.96 27.46,-2.83 34.42,9.22 l 278.53,482.43 c 6.96,12.05 2.83,27.46 -9.22,34.42 z"
   id="path2" />
			</g>
			<g
   id="g3">
				<defs
   id="defs3">
					<circle
   id="SVGID_00000073696087477671639480000000877105764513092496_"
   cx="344.67999"
   cy="253.07001"
   r="206.52" />
				</defs>
				<clipPath
   id="SVGID_00000021808283860755337920000005171946324363195265_">
					<use
   xlink:href="#SVGID_00000073696087477671639480000000877105764513092496_"
   overflow="visible"
   id="use3" />
				</clipPath>
				
					<path
   clip-path="url(#SVGID_00000021808283860755337920000005171946324363195265_)"
   fill="#ff92f7"
   stroke="#ffffff"
   stroke-width="8"
   stroke-miterlimit="10"
   d="m 496.54,516.1 v 0 c -12.05,6.96 -27.46,2.83 -34.42,-9.22 L 183.59,24.45 c -6.96,-12.05 -2.83,-27.46 9.22,-34.42 v 0 c 12.05,-6.96 27.46,-2.83 34.42,9.22 l 278.53,482.43 c 6.96,12.05 2.83,27.46 -9.22,34.42 z"
   id="path3" />
			</g>
			<g
   id="g4">
				
					<circle
   id="SVGID_1_"
   fill="none"
   stroke="#ffffff"
   stroke-width="8"
   stroke-miterlimit="10"
   cx="344.67999"
   cy="253.07001"
   r="206.52" />
			</g>
		</g>
	</g><path
       d="m 664.13798,192.52992 q 0,7.84 4.48,12.992 4.704,5.152 11.648,8.288 6.944,2.912 19.04,6.944 15.232,4.704 24.64,9.408 9.632,4.704 16.352,13.664 6.72,8.736 6.72,22.848 0,22.624 -17.024,34.496 -16.8,11.872 -42.784,11.872 -23.52,0 -46.816,-9.408 l 1.344,-38.528 h 13.44 l 3.808,24.64 q 15.008,6.048 29.568,6.048 15.456,0 25.536,-6.72 10.304,-6.944 10.304,-19.488 0,-8.288 -4.704,-13.44 -4.704,-5.376 -11.872,-8.512 -6.944,-3.136 -19.488,-7.168 -15.008,-4.704 -24.416,-9.184 -9.184,-4.48 -15.68,-12.992 -6.496,-8.512 -6.496,-22.4 0,-21.504 15.232,-32.704 15.232,-11.424 39.648,-11.424 22.848,0 45.92,9.408 l -2.016,36.512 h -13.664 l -3.584,-24.192 q -12.096,-4.48 -25.76,-4.48 -14.336,0 -23.968,5.824 -9.408,5.824 -9.408,17.696 z m 283.36024,102.592 16.576,3.808 v 11.872 h -54.208 v -11.872 l 15.232,-3.808 v -62.944 q 0,-12.544 -5.376,-18.816 -5.152,-6.272 -14.112,-6.272 -6.944,0 -15.232,4.032 -8.288,3.808 -16.352,11.424 0.224,1.344 0.224,3.808 v 68.768 l 15.008,3.808 v 11.872 h -52.64 v -11.872 l 15.232,-3.808 v -62.944 q 0,-12.544 -5.376,-18.816 -5.376,-6.272 -14.112,-6.272 -7.392,0 -15.68,4.032 -8.288,3.808 -16.128,11.2 v 73.024 l 15.232,3.584 v 11.872 h -54.208 v -11.872 l 16.576,-4.032 v -86.24 l -16.576,-4.032 v -11.872 l 34.048,-1.568 2.464,18.144 q 10.08,-9.408 21.504,-14.336 11.648,-5.152 22.176,-5.152 10.08,0 17.696,5.152 7.84,4.928 11.648,15.008 10.304,-9.856 21.728,-15.008 11.648,-5.152 22.176,-5.152 14.336,0 23.296,9.632 9.184,9.408 9.184,27.552 z m 122.75208,-0.448 16.8,4.032 v 11.872 l -34.048,1.568 -2.912,-19.264 q -8.96,9.856 -19.936,15.008 -10.752,5.152 -21.056,5.152 -13.66397,0 -22.62397,-8.736 -8.96,-8.96 -8.96,-25.312 0,-18.368 11.424,-25.984 11.64797,-7.84 33.59997,-7.84 h 25.312 v -16.8 q 0,-21.728 -22.848,-21.728 -9.408,0 -22.176,3.808 l -2.24,17.696 h -14.78397 l -1.792,-29.792 q 27.55197,-8.512 46.59197,-8.512 39.648,0 39.648,34.496 z m -70.112,-17.248 q 0,9.408 4.48,14.112 4.48,4.704 12.096,4.704 6.72,0 15.008,-4.032 8.288,-4.256 16.128,-11.424 v -21.28 h -21.728 q -14.336,0 -20.16,4.48 -5.824,4.256 -5.824,13.44 z m 134.6242,-140 v 157.472 l 16.576,4.032 v 11.872 h -55.776 v -11.872 l 16.8,-4.032 v -140.224 l -16.8,-3.808 v -11.872 z m 66.3039,0 v 157.472 l 16.576,4.032 v 11.872 h -55.776 v -11.872 l 16.8,-4.032 v -140.224 l -16.8,-3.808 v -11.872 z m 153.216,153.216 q -13.216,11.2 -27.776,16.8 -14.56,5.6 -28.672,5.6 -18.368,0 -33.376,-9.184 -14.784,-9.408 -23.52,-27.552 -8.736,-18.144 -8.736,-43.232 0,-25.088 8.736,-43.456 8.736,-18.368 24.64,-28 16.128,-9.856 37.408,-9.856 22.848,0 49.056,11.424 l -1.792,36.736 h -13.664 l -4.032,-24.416 q -15.68,-5.824 -29.12,-5.824 -21.728,0 -34.272,16.128 -12.32,16.128 -12.32,44.576 0,20.384 6.048,34.72 6.048,14.336 16.576,21.728 10.752,7.392 24.192,7.392 10.08,0 20.832,-4.256 10.752,-4.256 20.832,-12.768 z m 69.6644,-100.8 q 25.088,0 39.424,15.68 14.336,15.68 14.336,43.904 0,19.488 -6.944,33.824 -6.944,14.336 -19.936,22.176 -12.992,7.616 -30.912,7.616 -25.088,0 -38.976,-15.232 -13.664,-15.456 -13.664,-43.904 0,-29.792 15.008,-46.816 15.008,-17.248 41.664,-17.248 z m -1.12,16.352 q -15.68,0 -23.968,12.096 -8.288,11.872 -8.288,34.496 0,43.904 30.688,43.904 16.128,0 24.416,-11.872 8.512,-12.096 8.512,-34.272 0,-21.952 -8.064,-33.152 -7.84,-11.2 -23.296,-11.2 z m 186.816,88.928 16.576,3.808 v 11.872 h -54.656 v -11.872 l 15.68,-3.808 v -62.944 q 0,-12.544 -5.824,-18.816 -5.6,-6.272 -15.456,-6.272 -7.392,0 -15.904,3.808 -8.288,3.808 -16.352,11.424 v 73.024 l 15.68,3.584 v 11.872 h -54.656 v -11.872 l 16.576,-4.032 v -86.24 l -16.576,-4.032 v -11.872 l 34.048,-1.568 2.464,18.144 q 10.304,-9.632 21.728,-14.56 11.648,-4.928 22.176,-4.928 15.68,0 25.088,9.632 9.632,9.632 9.408,28 z m 90.2718,-142.912 q -10.752,0 -17.024,6.048 -6.048,6.048 -6.048,18.816 v 15.904 h 30.24 l -0.672,15.456 h -29.568 v 86.464 l 20.16,4.032 v 11.872 h -59.36 v -11.872 l 16.8,-3.808 v -86.688 h -17.248 v -12.32 l 17.248,-3.136 v -13.888 q 0,-21.504 10.976,-32.256 11.2,-10.752 30.912,-10.752 11.424,0 25.536,4.256 l -3.584,15.232 q -10.752,-3.36 -18.368,-3.36 z m 128.576,142.688 16.576,3.808 v 11.872 l -34.048,1.568 -2.688,-18.592 q -10.304,9.632 -21.728,14.56 -11.2,4.928 -21.952,4.928 -15.456,0 -24.864,-9.632 -9.408,-9.856 -9.408,-28.448 v -66.528 l -16.8,-3.808 v -11.872 l 39.2,-1.344 v 79.744 q 0,12.32 5.376,18.592 5.6,6.048 15.68,6.048 7.392,0 15.68,-3.808 8.512,-4.032 16.576,-11.424 v -72.128 l -16.8,-3.808 v -11.872 l 39.2,-1.568 z m 56.2242,-73.696 q 0,7.616 6.272,11.424 6.272,3.808 19.712,8.064 11.872,3.808 19.264,7.392 7.392,3.36 12.544,10.08 5.376,6.72 5.376,17.472 0,17.696 -14.112,27.552 -13.888,9.856 -36.064,9.856 -17.024,0 -36.288,-5.376 l 1.568,-31.584 h 14.112 l 2.2399,19.04 q 9.4081,2.464 19.0401,2.464 11.2,0 19.04,-4.704 8.064,-4.928 8.064,-13.664 0,-5.6 -3.584,-9.184 -3.36,-3.808 -8.512,-6.048 -5.152,-2.24 -14.112,-5.152 -11.648,-3.584 -19.04,-6.944 -7.168,-3.584 -12.32,-10.304 -5.152,-6.72 -5.152,-17.472 0,-16.8 12.544,-25.536 12.544,-8.736 31.136,-8.736 17.248,0 36.96,6.272 l -1.12,27.104 h -14.336 l -2.912,-15.232 q -9.408,-2.688 -17.92,-2.688 -10.08,0 -16.352,4.256 -6.048,4.256 -6.048,11.648 z m 119.616,-29.792 v 103.488 l 16.8,4.032 v 11.872 h -55.776 v -11.872 l 16.576,-4.032 v -86.464 l -16.576,-3.808 v -11.872 z m -12.32,-21.952 q -6.272,0 -10.08,-3.808 -3.808,-3.808 -3.808,-10.752 0,-6.944 3.808,-10.752 4.032,-3.808 10.304,-3.808 6.272,0 10.08,3.808 4.032,3.808 4.032,10.752 0,6.944 -4.032,10.752 -3.808,3.808 -10.304,3.808 z m 99.904,20.384 q 25.088,0 39.424,15.68 14.336,15.68 14.336,43.904 0,19.488 -6.944,33.824 -6.944,14.336 -19.936,22.176 -12.992,7.616 -30.912,7.616 -25.088,0 -38.976,-15.232 -13.664,-15.456 -13.664,-43.904 0,-29.792 15.008,-46.816 15.008,-17.248 41.664,-17.248 z m -1.12,16.352 q -15.68,0 -23.968,12.096 -8.288,11.872 -8.288,34.496 0,43.904 30.688,43.904 16.128,0 24.416,-11.872 8.512,-12.096 8.512,-34.272 0,-21.952 -8.064,-33.152 -7.84,-11.2 -23.296,-11.2 z m 186.8161,88.928 16.576,3.808 v 11.872 h -54.656 v -11.872 l 15.68,-3.808 v -62.944 q 0,-12.544 -5.824,-18.816 -5.6,-6.272 -15.456,-6.272 -7.392,0 -15.904,3.808 -8.288,3.808 -16.352,11.424 v 73.024 l 15.68,3.584 v 11.872 h -54.656 v -11.872 l 16.576,-4.032 v -86.24 l -16.576,-4.032 v -11.872 l 34.048,-1.568 2.464,18.144 q 10.304,-9.632 21.728,-14.56 11.648,-4.928 22.176,-4.928 15.68,0 25.088,9.632 9.632,9.632 9.408,28 z"
       id="text1"
       style="font-weight:500;font-size:224px;font-family:'Bitter Pro';-inkscape-font-specification:'Bitter Pro, Medium';white-space:pre;fill:#ffffff;stroke-width:2.30929;stroke-linecap:square;paint-order:stroke fill markers"
       transform="translate(-70.633987,28.508137)"
       aria-label="SmallConfusion" /></g><text
     xml:space="preserve"
     id="text7"
     style="font-style:normal;font-variant:normal;font-weight:500;font-stretch:normal;font-size:224px;font-family:'Bitter Pro';-inkscape-font-specification:'Bitter Pro, Medium';font-variant-ligatures:normal;font-variant-caps:normal;font-variant-numeric:normal;font-variant-east-asian:normal;writing-mode:lr-tb;direction:ltr;white-space:pre;shape-inside:url(#rect7);display:inline;fill:#ffffff;stroke-width:2.30929;stroke-linecap:square;paint-order:stroke fill markers"
     transform="translate(-70.633987,571.02642)"><tspan
       x="625.83398"
       y="310.80192"
       id="tspan1">SmallConfusion</tspan></text></g>
</svg>
